<svg xmlns="http://www.w3.org/2000/svg" version="1.1" xmlns:xlink="http://www.w3.org/1999/xlink" xmlns:svgjs="http://svgjs.dev/svgjs" width="2000" height="535" viewBox="0 0 2000 535"><g transform="matrix(1,0,0,1,-1.2121212121212466,1.0983308756126462)"><svg viewBox="0 0 396 106" data-background-color="#ffffff" preserveAspectRatio="xMidYMid meet" height="535" width="2000" xmlns="http://www.w3.org/2000/svg" xmlns:xlink="http://www.w3.org/1999/xlink"><g id="tight-bounds" transform="matrix(1,0,0,1,0.2400000000000091,-0.21761322021484375)"><svg viewBox="0 0 395.52 106.4352249274138" height="106.4352249274138" width="395.52"><g><svg viewBox="0 0 622.4240610279165 167.49556264093" height="106.4352249274138" width="395.52"><g></g><g transform="matrix(1,0,0,1,0,23.148807861373108)"><svg viewBox="0 0 395.52 121.19794691818377" height="121.19794691818377" width="395.52"><g id="textblocktransform"><svg viewBox="0 0 395.52 121.19794691818377" height="121.19794691818377" width="395.52" id="textblock"><g><svg viewBox="0 0 395.52 121.19794691818377" height="121.19794691818377" width="395.52"><g transform="matrix(1,0,0,1,0,0)"><svg width="395.52" viewBox="1.75 -47 228.92999267578125 69.8499984741211" height="121.19794691818377" data-palette-color="url(#ba8fe1ef-6673-4265-b9a1-2f8ed619a65f)"><g class="wordmark-text-0" data-fill-palette-color="primary" id="text-0"></g></svg></g></svg></g></svg></g></svg></g><g transform="matrix(1,0,0,1,463.6736089626773,0)"><svg viewBox="0 0 158.75045206523922 167.49556264093" height="167.49556264093" width="158.75045206523922"><g><svg xmlns="http://www.w3.org/2000/svg" xmlns:xlink="http://www.w3.org/1999/xlink" version="1.1" x="0" y="0" viewBox="7.349999904632568 5 85.30101013183594 90" enable-background="new 0 0 100 100" xml:space="preserve" height="167.49556264093" width="158.75045206523922" class="icon-icon-0" data-fill-palette-color="accent" id="icon-0"></svg></g></svg></g></svg></g><defs></defs><mask id="0e736b7d-b720-46e5-82bd-97d633db2ac8"><g id="SvgjsG1160"><svg viewBox="0 0 395.52 106.4352249274138" height="106.4352249274138" width="395.52"><g><svg viewBox="0 0 622.4240610279165 167.49556264093" height="106.4352249274138" width="395.52"><g><rect width="10.929755929363033" height="121.80393665277468" x="424.13192651665713" y="22.845812994077654" fill="white" opacity="1" stroke-width="0" stroke="transparent" fill-opacity="1" class="rect-o-0" rx="1%" id="SvgjsRect1159" data-palette-color="url(#ba8fe1ef-6673-4265-b9a1-2f8ed619a65f)"></rect></g><g transform="matrix(1,0,0,1,0,23.148807861373108)"><svg viewBox="0 0 395.52 121.19794691818377" height="121.19794691818377" width="395.52"><g id="SvgjsG1158"><svg viewBox="0 0 395.52 121.19794691818377" height="121.19794691818377" width="395.52" id="SvgjsSvg1157"><g><svg viewBox="0 0 395.52 121.19794691818377" height="121.19794691818377" width="395.52"><g transform="matrix(1,0,0,1,0,0)"><svg width="395.52" viewBox="1.75 -47 228.92999267578125 69.8499984741211" height="121.19794691818377" data-palette-color="url(#ba8fe1ef-6673-4265-b9a1-2f8ed619a65f)"><g class="wordmark-text-0" data-fill-palette-color="primary" id="SvgjsG1156"><path d="M42.05-41.5Q43.6-41.2 44.38-40.45 45.15-39.7 45.15-38.7L45.15-38.7Q45.15-37.05 44.23-36.3 43.3-35.55 41.3-35.7L41.3-35.7Q36.8-36.05 34.27-36.18 31.75-36.3 27.65-36.35L27.65-36.35Q25.8-27.15 24.25-17.85L24.25-17.85Q23.7-14.45 23.1-9.98 22.5-5.5 22.3-2.75L22.3-2.75Q22.2-1.3 21.1-0.53 20 0.25 18.45 0.25L18.45 0.25Q16.8 0.25 15.9-0.55 15-1.35 15-2.65L15-2.65Q15-3.85 15.38-6.63 15.75-9.4 16.25-12.45L16.25-12.45Q16.8-15.5 17.1-17.75L17.1-17.75Q17.65-21.55 18.35-25.3 19.05-29.05 19.75-32.4L19.75-32.4Q19.9-33.15 20.1-34.13 20.3-35.1 20.55-36.3L20.55-36.3Q15.65-36.15 12.85-35.5 10.05-34.85 8.88-33.68 7.7-32.5 7.7-30.65L7.7-30.65Q7.7-28.95 8.7-27.4L8.7-27.4Q8.9-27.05 8.9-26.65L8.9-26.65Q8.9-25.7 7.78-24.88 6.65-24.05 5.45-24.05L5.45-24.05Q4.6-24.05 4.05-24.55L4.05-24.55Q3.05-25.4 2.4-26.98 1.75-28.55 1.75-30.55L1.75-30.55Q1.75-34.8 4.53-37.38 7.3-39.95 12.98-41.15 18.65-42.35 27.55-42.35L27.55-42.35Q33.05-42.35 36.33-42.15 39.6-41.95 42.05-41.5L42.05-41.5ZM40.8 0.25Q38.9 0.25 38.12-1.75 37.35-3.75 37.35-8.15L37.35-8.15Q37.35-14.65 39.2-20.5L39.2-20.5Q39.65-21.95 40.67-22.63 41.7-23.3 43.55-23.3L43.55-23.3Q44.55-23.3 44.95-23.05 45.35-22.8 45.35-22.1L45.35-22.1Q45.35-21.3 44.6-18.5L44.6-18.5Q44.1-16.5 43.8-15 43.5-13.5 43.3-11.3L43.3-11.3Q44.95-15.6 47-18.3 49.05-21 51.02-22.15 53-23.3 54.65-23.3L54.65-23.3Q57.9-23.3 57.9-20.05L57.9-20.05Q57.9-19.4 57.45-16.9L57.45-16.9Q57.05-14.9 57.05-14.4L57.05-14.4Q57.05-12.65 58.3-12.65L58.3-12.65Q59.7-12.65 61.9-14.85L61.9-14.85Q62.55-15.5 63.25-15.5L63.25-15.5Q63.9-15.5 64.27-14.93 64.65-14.35 64.65-13.4L64.65-13.4Q64.65-11.55 63.65-10.5L63.65-10.5Q62.25-9.05 60.37-8.03 58.5-7 56.4-7L56.4-7Q53.75-7 52.37-8.35 51-9.7 51-12L51-12Q51-12.75 51.15-13.5L51.15-13.5Q51.25-14.5 51.25-14.85L51.25-14.85Q51.25-15.65 50.7-15.65L50.7-15.65Q49.95-15.65 48.72-13.98 47.5-12.3 46.3-9.55 45.1-6.8 44.35-3.75L44.35-3.75Q43.8-1.4 43.07-0.58 42.35 0.25 40.8 0.25L40.8 0.25ZM66.15 0.25Q63.05 0.25 61.2-2 59.35-4.25 59.35-7.9L59.35-7.9Q59.35-11.9 61.2-15.48 63.05-19.05 66.12-21.23 69.2-23.4 72.65-23.4L72.65-23.4Q73.75-23.4 74.12-22.98 74.5-22.55 74.75-21.45L74.75-21.45Q75.8-21.65 76.95-21.65L76.95-21.65Q79.4-21.65 79.4-19.9L79.4-19.9Q79.4-18.85 78.65-14.9L78.65-14.9Q77.5-9.15 77.5-6.9L77.5-6.9Q77.5-6.15 77.87-5.7 78.25-5.25 78.84-5.25L78.84-5.25Q79.8-5.25 81.15-6.48 82.5-7.7 84.8-10.45L84.8-10.45Q85.4-11.15 86.15-11.15L86.15-11.15Q86.8-11.15 87.17-10.55 87.55-9.95 87.55-8.9L87.55-8.9Q87.55-6.9 86.59-5.8L86.59-5.8Q84.55-3.25 82.25-1.5 79.95 0.25 77.8 0.25L77.8 0.25Q76.15 0.25 74.77-0.88 73.4-2 72.7-3.95L72.7-3.95Q70.09 0.25 66.15 0.25L66.15 0.25ZM67.95-4.8Q69.05-4.8 70.05-6.1 71.05-7.4 71.5-9.55L71.5-9.55 73.34-18.75Q71.25-18.7 69.47-17.18 67.7-15.65 66.65-13.15 65.59-10.65 65.59-7.85L65.59-7.85Q65.59-6.3 66.22-5.55 66.84-4.8 67.95-4.8L67.95-4.8ZM108.24-15.2Q108.39-15.25 108.74-15.25L108.74-15.25Q109.49-15.25 109.89-14.75 110.29-14.25 110.29-13.4L110.29-13.4Q110.29-11.85 109.69-10.98 109.09-10.1 107.89-9.7L107.89-9.7Q105.59-8.95 102.99-8.95L102.99-8.95Q100.79-8.95 98.84-9.55L98.84-9.55Q97.39-7.2 95.64-4.7L95.64-4.7Q93.64-1.85 92.19-0.8 90.74 0.25 88.89 0.25L88.89 0.25Q86.84 0.25 85.67-1.35 84.49-2.95 84.19-6.4L84.19-6.4Q83.59-13.4 83.59-18.65L83.59-18.65 83.59-20.4Q83.64-22.05 84.49-22.7 85.34-23.35 87.04-23.35L87.04-23.35Q88.34-23.35 88.97-22.78 89.59-22.2 89.59-20.85L89.59-20.85Q89.59-15.1 90.29-5.9L90.29-5.9Q93.29-10.35 94.79-13L94.79-13Q94.04-14.45 94.04-16.45L94.04-16.45Q94.04-18.15 94.79-19.75 95.54-21.35 96.84-22.35 98.14-23.35 99.79-23.35L99.79-23.35Q101.24-23.35 102.14-22.33 103.04-21.3 103.04-19.35L103.04-19.35Q103.04-17.1 101.84-14.2L101.84-14.2Q103.74-14.3 106.89-14.95L106.89-14.95 108.24-15.2ZM128.24-11.15Q128.89-11.15 129.27-10.55 129.64-9.95 129.64-8.9L129.64-8.9Q129.64-6.9 128.69-5.8L128.69-5.8Q126.84-3.55 123.47-1.65 120.09 0.25 116.24 0.25L116.24 0.25Q110.99 0.25 108.09-2.6 105.19-5.45 105.19-10.4L105.19-10.4Q105.19-13.85 106.64-16.82 108.09-19.8 110.67-21.55 113.24-23.3 116.49-23.3L116.49-23.3Q119.39-23.3 121.14-21.58 122.89-19.85 122.89-16.9L122.89-16.9Q122.89-13.45 120.42-10.98 117.94-8.5 112.04-7.05L112.04-7.05Q113.29-4.75 116.79-4.75L116.79-4.75Q119.04-4.75 121.92-6.33 124.79-7.9 126.89-10.45L126.89-10.45Q127.49-11.15 128.24-11.15L128.24-11.15ZM115.64-18.4Q113.79-18.4 112.52-16.25 111.24-14.1 111.24-11.05L111.24-11.05 111.24-10.95Q114.19-11.65 115.89-13.05 117.59-14.45 117.59-16.3L117.59-16.3Q117.59-17.25 117.07-17.82 116.54-18.4 115.64-18.4L115.64-18.4ZM144.54-11.15Q145.19-11.15 145.56-10.55 145.94-9.95 145.94-8.9L145.94-8.9Q145.94-6.9 144.99-5.8L144.99-5.8Q142.84-3.15 140.31-1.45 137.79 0.25 134.59 0.25L134.59 0.25Q130.19 0.25 128.06-3.75 125.94-7.75 125.94-14.1L125.94-14.1Q125.94-20.2 127.51-28 129.09-35.8 132.16-41.4 135.24-47 139.49-47L139.49-47Q141.89-47 143.26-44.78 144.64-42.55 144.64-38.4L144.64-38.4Q144.64-32.45 141.34-24.6 138.04-16.75 132.39-9.05L132.39-9.05Q132.74-7 133.54-6.13 134.34-5.25 135.64-5.25L135.64-5.25Q137.69-5.25 139.24-6.43 140.79-7.6 143.19-10.45L143.19-10.45Q143.79-11.15 144.54-11.15L144.54-11.15ZM138.39-42.05Q137.24-42.05 135.79-37.9 134.34-33.75 133.24-27.6 132.14-21.45 132.04-15.8L132.04-15.8Q135.59-21.65 137.69-27.53 139.79-33.4 139.79-38.25L139.79-38.25Q139.79-42.05 138.39-42.05L138.39-42.05ZM145.44 0.25Q143.54 0.25 142.76-1.75 141.99-3.75 141.99-8.15L141.99-8.15Q141.99-14.65 143.84-20.5L143.84-20.5Q144.29-21.95 145.31-22.63 146.34-23.3 148.19-23.3L148.19-23.3Q149.19-23.3 149.59-23.05 149.99-22.8 149.99-22.1L149.99-22.1Q149.99-21.3 149.24-18.5L149.24-18.5Q148.74-16.5 148.44-15.03 148.14-13.55 147.94-11.35L147.94-11.35Q149.29-15.25 151.16-17.95 153.04-20.65 155.01-21.98 156.99-23.3 158.74-23.3L158.74-23.3Q160.49-23.3 161.21-22.5 161.94-21.7 161.94-20.05L161.94-20.05Q161.94-18.45 160.99-14.25L160.99-14.25Q160.59-12.45 160.44-11.55L160.44-11.55Q162.94-17.7 165.99-20.5 169.04-23.3 171.69-23.3L171.69-23.3Q174.94-23.3 174.94-20.05L174.94-20.05Q174.94-18.1 173.84-13L173.84-13Q172.89-8.65 172.89-7.25L172.89-7.25Q172.89-5.25 174.34-5.25L174.34-5.25Q175.34-5.25 176.71-6.48 178.09-7.7 180.39-10.45L180.39-10.45Q180.99-11.15 181.74-11.15L181.74-11.15Q182.39-11.15 182.76-10.55 183.14-9.95 183.14-8.9L183.14-8.9Q183.14-6.9 182.19-5.8L182.19-5.8Q180.04-3.15 177.56-1.45 175.09 0.25 171.94 0.25L171.94 0.25Q169.39 0.25 168.09-1.23 166.79-2.7 166.79-5.5L166.79-5.5Q166.79-6.9 167.49-10.5L167.49-10.5Q168.14-13.65 168.14-14.85L168.14-14.85Q168.14-15.65 167.59-15.65L167.59-15.65Q166.94-15.65 165.74-13.98 164.54-12.3 163.34-9.55 162.14-6.8 161.39-3.75L161.39-3.75Q160.84-1.35 160.11-0.55 159.39 0.25 157.79 0.25L157.79 0.25Q156.14 0.25 155.31-1.33 154.49-2.9 154.49-5.15L154.49-5.15Q154.49-7.05 154.99-10.65L154.99-10.65Q155.39-13.85 155.39-14.85L155.39-14.85Q155.39-15.65 154.84-15.65L154.84-15.65Q154.09-15.65 152.94-13.85 151.79-12.05 150.71-9.25 149.64-6.45 148.99-3.75L148.99-3.75Q148.44-1.4 147.71-0.58 146.99 0.25 145.44 0.25L145.44 0.25ZM185.23 0.25Q182.13 0.25 180.28-2 178.43-4.25 178.43-7.9L178.43-7.9Q178.43-11.9 180.28-15.48 182.13-19.05 185.21-21.23 188.28-23.4 191.73-23.4L191.73-23.4Q192.83-23.4 193.21-22.98 193.58-22.55 193.83-21.45L193.83-21.45Q194.88-21.65 196.03-21.65L196.03-21.65Q198.48-21.65 198.48-19.9L198.48-19.9Q198.48-18.85 197.73-14.9L197.73-14.9Q196.58-9.15 196.58-6.9L196.58-6.9Q196.58-6.15 196.96-5.7 197.33-5.25 197.93-5.25L197.93-5.25Q198.88-5.25 200.23-6.48 201.58-7.7 203.88-10.45L203.88-10.45Q204.48-11.15 205.23-11.15L205.23-11.15Q205.88-11.15 206.26-10.55 206.63-9.95 206.63-8.9L206.63-8.9Q206.63-6.9 205.68-5.8L205.68-5.8Q203.63-3.25 201.33-1.5 199.03 0.25 196.88 0.25L196.88 0.25Q195.23 0.25 193.86-0.88 192.48-2 191.78-3.95L191.78-3.95Q189.18 0.25 185.23 0.25L185.23 0.25ZM187.03-4.8Q188.13-4.8 189.13-6.1 190.13-7.4 190.58-9.55L190.58-9.55 192.43-18.75Q190.33-18.7 188.56-17.18 186.78-15.65 185.73-13.15 184.68-10.65 184.68-7.85L184.68-7.85Q184.68-6.3 185.31-5.55 185.93-4.8 187.03-4.8L187.03-4.8ZM229.28-11.15Q229.93-11.15 230.31-10.55 230.68-9.95 230.68-8.9L230.68-8.9Q230.68-6.9 229.73-5.8L229.73-5.8Q227.58-3.15 225.11-1.45 222.63 0.25 219.48 0.25L219.48 0.25Q216.83 0.25 215.18-1.65L215.18-1.65Q212.33 0.2 209.23 0.25L209.23 0.25Q208.58 9.9 206.28 16.38 203.98 22.85 199.53 22.85L199.53 22.85Q196.83 22.85 195.53 20.9 194.23 18.95 194.23 15.5L194.23 15.5Q194.23 10.6 196.48 4.08 198.73-2.45 203.43-10.3L203.43-10.3Q203.43-17.6 203.33-20.45L203.33-20.45Q203.28-21.9 204.48-22.75 205.68-23.6 207.48-23.6L207.48-23.6Q208.53-23.6 209-23.18 209.48-22.75 209.53-21.5L209.53-21.5Q209.53-20.25 209.58-19.65L209.58-19.65Q211.18-21.65 212.73-22.53 214.28-23.4 216.03-23.4L216.03-23.4Q218.83-23.4 220.61-21.15 222.38-18.9 222.38-15.25L222.38-15.25Q222.38-12.6 221.53-10.1 220.68-7.6 219.18-5.55L219.18-5.55Q220.23-5.25 220.93-5.25L220.93-5.25Q222.58-5.25 224.08-6.45 225.58-7.65 227.93-10.45L227.93-10.45Q228.53-11.15 229.28-11.15L229.28-11.15ZM209.48-4.55Q211.28-4.95 212.81-6.53 214.33-8.1 215.23-10.43 216.13-12.75 216.13-15.3L216.13-15.3Q216.13-16.8 215.53-17.57 214.93-18.35 213.93-18.35L213.93-18.35Q212.13-18.35 209.58-14.55L209.58-14.55Q209.53-12.35 209.53-8.1L209.53-8.1Q209.53-5.8 209.48-4.55L209.48-4.55ZM199.93 17.95Q201.28 17.95 202.18 12.08 203.08 6.2 203.33-2.55L203.33-2.55Q201.18 2.45 199.93 7 198.68 11.55 198.68 14.65L198.68 14.65Q198.68 16.25 199.06 17.1 199.43 17.95 199.93 17.95L199.93 17.95Z" fill="white"></path></g></svg></g></svg></g></svg></g></svg></g><g transform="matrix(1,0,0,1,463.6736089626773,0)"><svg viewBox="0 0 158.75045206523922 167.49556264093" height="167.49556264093" width="158.75045206523922"><g><svg xmlns="http://www.w3.org/2000/svg" xmlns:xlink="http://www.w3.org/1999/xlink" version="1.1" x="0" y="0" viewBox="7.349999904632568 5 85.30101013183594 90" enable-background="new 0 0 100 100" xml:space="preserve" height="167.49556264093" width="158.75045206523922" class="icon-icon-0" data-fill-palette-color="accent" id="SvgjsSvg1155"></svg></g></svg></g></svg></g><defs></defs></svg></g></mask><linearGradient x1="0" x2="1" y1="0.548" y2="0.55" id="ba8fe1ef-6673-4265-b9a1-2f8ed619a65f"><stop stop-color="#ff6cab" offset="0"></stop><stop stop-color="#7366ff" offset="1"></stop></linearGradient><rect width="395.5199890136719" height="106.43522644042969" fill="#ffffff" mask="url(#0e736b7d-b720-46e5-82bd-97d633db2ac8)" data-fill-palette-color="primary"></rect><mask id="d0337ec7-2420-41b1-8d18-74aae99f794a"><g id="SvgjsG1171"><svg viewBox="0 0 395.52 106.4352249274138" height="106.4352249274138" width="395.52"><g><svg viewBox="0 0 622.4240610279165 167.49556264093" height="106.4352249274138" width="395.52"><g></g><g transform="matrix(1,0,0,1,0,23.148807861373108)"><svg viewBox="0 0 395.52 121.19794691818377" height="121.19794691818377" width="395.52"><g id="SvgjsG1170"><svg viewBox="0 0 395.52 121.19794691818377" height="121.19794691818377" width="395.52" id="SvgjsSvg1169"><g><svg viewBox="0 0 395.52 121.19794691818377" height="121.19794691818377" width="395.52"><g transform="matrix(1,0,0,1,0,0)"><svg width="395.52" viewBox="1.75 -47 228.92999267578125 69.8499984741211" height="121.19794691818377" data-palette-color="url(#ba8fe1ef-6673-4265-b9a1-2f8ed619a65f)"><g class="wordmark-text-0" data-fill-palette-color="primary" id="SvgjsG1168"></g></svg></g></svg></g></svg></g></svg></g><g transform="matrix(1,0,0,1,463.6736089626773,0)"><svg viewBox="0 0 158.75045206523922 167.49556264093" height="167.49556264093" width="158.75045206523922"><g><svg xmlns="http://www.w3.org/2000/svg" xmlns:xlink="http://www.w3.org/1999/xlink" version="1.1" x="0" y="0" viewBox="7.349999904632568 5 85.30101013183594 90" enable-background="new 0 0 100 100" xml:space="preserve" height="167.49556264093" width="158.75045206523922" class="icon-icon-0" data-fill-palette-color="accent" id="SvgjsSvg1167"><g fill="white"><path d="M63.256 50.029c-1.084 0-2.093-0.551-2.679-1.463L49.163 30.808c-0.008-0.012-0.015-0.023-0.023-0.035-1.724-2.693-2.636-5.812-2.636-9.023C46.505 12.514 54.019 5 63.256 5c9.236 0 16.75 7.514 16.75 16.75 0 3.225-0.919 6.359-2.659 9.06L65.935 48.566C65.349 49.478 64.34 50.029 63.256 50.029zM54.541 27.396l8.715 13.559 8.735-13.59c1.078-1.674 1.647-3.614 1.647-5.614 0-5.725-4.657-10.382-10.382-10.382S52.874 16.026 52.874 21.75c0 1.999 0.569 3.939 1.645 5.61C54.526 27.373 54.534 27.384 54.541 27.396z" fill="white"></path></g><g fill="white"><path d="M63.256 28.641c-3.788 0-6.87-3.082-6.87-6.87s3.082-6.869 6.87-6.869c3.788 0 6.869 3.081 6.869 6.869S67.044 28.641 63.256 28.641zM63.256 19.148c-1.447 0-2.624 1.177-2.624 2.623 0 1.447 1.177 2.624 2.624 2.624 1.447 0 2.623-1.177 2.623-2.624C65.879 20.325 64.703 19.148 63.256 19.148z" fill="white"></path></g><g fill="white"><path d="M36.233 94.936c-0.085-0.011-0.17-0.032-0.265-0.053l-0.138-0.042C35.957 94.883 36.095 94.915 36.233 94.936z" fill="white"></path></g><g fill="white"><path d="M37.846 94.841l-0.127 0.042c-0.095 0.032-0.191 0.053-0.287 0.053C37.57 94.915 37.708 94.883 37.846 94.841z" fill="white"></path></g><g fill="white"><path d="M90.336 32.808l-5.329-1.518c-1.688-0.488-3.45 0.499-3.938 2.187-0.478 1.688 0.499 3.45 2.197 3.938l3.015 0.86v49.327l-21.007-5.987V58.835c0-1.168-0.955-2.123-2.123-2.123-1.178 0-2.123 0.955-2.123 2.123v22.779l-22.068 6.295V38.582l4.469-1.284c1.688-0.478 2.664-2.24 2.187-3.927-0.488-1.698-2.24-2.675-3.938-2.197l-4.84 1.38-25.433-7.25c-0.955-0.276-1.996-0.085-2.792 0.52S7.35 27.362 7.35 28.36v55.951c0 1.422 0.945 2.675 2.303 3.068l26.176 7.462c0.127 0.042 0.265 0.074 0.403 0.095C36.424 94.979 36.636 95 36.838 95c0.191 0 0.393-0.011 0.594-0.064 0.138-0.021 0.276-0.053 0.414-0.095l25.295-7.218h0.011l25.433 7.261C88.872 94.958 89.169 95 89.466 95c0.679 0 1.359-0.223 1.911-0.637 0.796-0.605 1.274-1.55 1.274-2.548V35.865C92.65 34.442 91.706 33.2 90.336 32.808zM34.715 87.899l-20.996-5.987V32.585l20.996 5.987V87.899z" fill="white"></path></g></svg></g></svg></g></svg></g><defs></defs><mask><g id="SvgjsG1166"><svg viewBox="0 0 395.52 106.4352249274138" height="106.4352249274138" width="395.52"><g><svg viewBox="0 0 622.4240610279165 167.49556264093" height="106.4352249274138" width="395.52"><g></g><g transform="matrix(1,0,0,1,0,23.148807861373108)"><svg viewBox="0 0 395.52 121.19794691818377" height="121.19794691818377" width="395.52"><g id="SvgjsG1164"><svg viewBox="0 0 395.52 121.19794691818377" height="121.19794691818377" width="395.52" id="SvgjsSvg1163"><g><svg viewBox="0 0 395.52 121.19794691818377" height="121.19794691818377" width="395.52"><g transform="matrix(1,0,0,1,0,0)"><svg width="395.52" viewBox="1.75 -47 228.92999267578125 69.8499984741211" height="121.19794691818377" data-palette-color="url(#ba8fe1ef-6673-4265-b9a1-2f8ed619a65f)"><g class="wordmark-text-0" data-fill-palette-color="primary" id="SvgjsG1162"></g></svg></g></svg></g></svg></g></svg></g><g transform="matrix(1,0,0,1,463.6736089626773,0)"><svg viewBox="0 0 158.75045206523922 167.49556264093" height="167.49556264093" width="158.75045206523922"><g><svg xmlns="http://www.w3.org/2000/svg" xmlns:xlink="http://www.w3.org/1999/xlink" version="1.1" x="0" y="0" viewBox="7.349999904632568 5 85.30101013183594 90" enable-background="new 0 0 100 100" xml:space="preserve" height="167.49556264093" width="158.75045206523922" class="icon-icon-0" data-fill-palette-color="accent" id="SvgjsSvg1161"></svg></g></svg></g></svg></g><defs></defs></svg></g></mask></svg></g></mask><linearGradient x1="0" x2="1" y1="0.548" y2="0.55" id="8f472410-cdef-41b8-8c52-a22fd5b7af4f"><stop stop-color="#ff6cab" offset="0"></stop><stop stop-color="#7366ff" offset="1"></stop></linearGradient><rect width="395.5199890136719" height="106.43522644042969" fill="#ffffff" mask="url(#d0337ec7-2420-41b1-8d18-74aae99f794a)" data-fill-palette-color="accent"></rect></svg><rect width="395.52" height="106.4352249274138" fill="none" stroke="none" visibility="hidden"></rect></g></svg></g></svg>